<?xml version="1.0" encoding="UTF-8"?>
<svg version="1.1" xmlns="http://www.w3.org/2000/svg" width="36" height="36">
<path d="M0 0 C11.88 0 23.76 0 36 0 C36 11.88 36 23.76 36 36 C24.12 36 12.24 36 0 36 C0 24.12 0 12.24 0 0 Z M2 2 C2 12.56 2 23.12 2 34 C12.56 34 23.12 34 34 34 C34 23.44 34 12.88 34 2 C23.44 2 12.88 2 2 2 Z " fill="#606860" transform="translate(0,0)"/>
<path d="M0 0 C1.65 0 3.3 0 5 0 C5 3.3 5 6.6 5 10 C4.01 10 3.02 10 2 10 C1.67 10.66 1.34 11.32 1 12 C-1.39591038 12.02712351 -3.79150957 12.0468982 -6.1875 12.0625 C-6.86103516 12.07087891 -7.53457031 12.07925781 -8.22851562 12.08789062 C-11.95880546 12.10608716 -15.37652671 11.8927398 -19 11 C-19.763125 10.814375 -20.52625 10.62875 -21.3125 10.4375 C-21.869375 10.293125 -22.42625 10.14875 -23 10 C-23.625 7.625 -23.625 7.625 -24 5 C-21.20503934 2.20503934 -18.86404416 2.33895124 -15 2 C-14.01 2.33 -13.02 2.66 -12 3 C-10.2675 2.7525 -10.2675 2.7525 -8.5 2.5 C-5 2 -5 2 -2 3 C-1.34 2.34 -0.68 1.68 0 1 C0 0.67 0 0.34 0 0 Z M-12 5 C-12.66 5.66 -13.32 6.32 -14 7 C-13.01 7 -12.02 7 -11 7 C-11.33 6.34 -11.66 5.68 -12 5 Z M1 7 C0.67 7.66 0.34 8.32 0 9 C0.66 9 1.32 9 2 9 C1.67 8.34 1.34 7.68 1 7 Z " fill="#FA8719" transform="translate(27,9)"/>
<path d="M0 0 C0.66 0.99 1.32 1.98 2 3 C2.66 3 3.32 3 4 3 C3.34 4.98 2.68 6.96 2 9 C-3.94 8.01 -3.94 8.01 -10 7 C-10.33 5.35 -10.66 3.7 -11 2 C-7.61039123 -1.38960877 -4.49598055 -1.41978333 0 0 Z " fill="#C98F20" transform="translate(14,12)"/>
<path d="M0 0 C1.65 0 3.3 0 5 0 C5 3.3 5 6.6 5 10 C4.01 10 3.02 10 2 10 C1.67 10.66 1.34 11.32 1 12 C-0.65 12 -2.3 12 -4 12 C-4 11.01 -4 10.02 -4 9 C-2.02 9 -0.04 9 2 9 C2 6.36 2 3.72 2 1 C1.34 0.67 0.68 0.34 0 0 Z " fill="#18AA47" transform="translate(27,9)"/>
<path d="M0 0 C0 0.66 0 1.32 0 2 C1.32 2 2.64 2 4 2 C4 2.66 4 3.32 4 4 C-0.33273814 4.92844389 -3.66726186 4.92844389 -8 4 C-8 3.34 -8 2.68 -8 2 C-2.25 0 -2.25 0 0 0 Z " fill="#0EB44D" transform="translate(20,24)"/>
<path d="M0 0 C-0.66 1.98 -1.32 3.96 -2 6 C-3.32 5.67 -4.64 5.34 -6 5 C-5.6875 3.0625 -5.6875 3.0625 -5 1 C-2 0 -2 0 0 0 Z " fill="#A8962D" transform="translate(18,15)"/>
<path d="M0 0 C0.99 1.32 1.98 2.64 3 4 C2.67 4.66 2.34 5.32 2 6 C0.02 6 -1.96 6 -4 6 C-3.67 5.01 -3.34 4.02 -3 3 C-2.34 3 -1.68 3 -1 3 C-0.67 2.01 -0.34 1.02 0 0 Z " fill="#E57419" transform="translate(20,15)"/>
<path d="M0 0 C0.042721 1.66611905 0.04063832 3.33382885 0 5 C-1 6 -1 6 -3.5625 6.0625 C-4.7690625 6.0315625 -4.7690625 6.0315625 -6 6 C-5.34 5.34 -4.68 4.68 -4 4 C-4 3.01 -4 2.02 -4 1 C-2 0 -2 0 0 0 Z " fill="#EB781A" transform="translate(29,11)"/>
<path d="M0 0 C1.98 0 3.96 0 6 0 C6 0.33 6 0.66 6 1 C4.02 1 2.04 1 0 1 C0 0.67 0 0.34 0 0 Z " fill="#00943F" transform="translate(12,29)"/>
<path d="M0 0 C1.65 0 3.3 0 5 0 C5 0.33 5 0.66 5 1 C3.35 1 1.7 1 0 1 C0 0.67 0 0.34 0 0 Z " fill="#007F19" transform="translate(19,29)"/>
<path d="M0 0 C4 1 4 1 4 1 Z " fill="#00942A" transform="translate(23,22)"/>
<path d="M0 0 C0.66 0 1.32 0 2 0 C1.67 0.66 1.34 1.32 1 2 C0.67 1.34 0.34 0.68 0 0 Z " fill="#00E21C" transform="translate(14,22)"/>
<path d="M0 0 C3 1 3 1 3 1 Z " fill="#FF5400" transform="translate(8,21)"/>
<path d="M0 0 C2 1 2 1 2 1 Z " fill="#DF7F00" transform="translate(17,22)"/>
<path d="M0 0 C2 1 2 1 2 1 Z " fill="#FF3F00" transform="translate(6,20)"/>
<path d="M0 0 C2 1 2 1 2 1 Z " fill="#FF0000" transform="translate(17,9)"/>
<path d="M0 0 C2 1 2 1 2 1 Z " fill="#00552A" transform="translate(29,7)"/>
<path d="" fill="#00FF00" transform="translate(0,0)"/>
<path d="" fill="#00FF00" transform="translate(0,0)"/>
<path d="" fill="#00FF00" transform="translate(0,0)"/>
<path d="" fill="#00FF00" transform="translate(0,0)"/>
<path d="" fill="#AA5500" transform="translate(0,0)"/>
<path d="" fill="#00FF00" transform="translate(0,0)"/>
<path d="" fill="#FF7F00" transform="translate(0,0)"/>
<path d="" fill="#FFFF00" transform="translate(0,0)"/>
<path d="" fill="#FFFF00" transform="translate(0,0)"/>
</svg>
