<?xml version="1.0" encoding="UTF-8"?>
<svg version="1.1" xmlns="http://www.w3.org/2000/svg" width="3000" height="3353">
<path d="M0 0 C0 535.59 0 1071.18 0 1623 C35.64 1615.41 71.28 1607.82 108 1600 C133.63483016 1594.54658701 159.26988649 1589.09425735 184.90620577 1583.6478523 C190.27741081 1582.50673124 195.64859351 1581.36550508 201.01977181 1580.22425818 C203.01920656 1579.7994339 205.01864683 1579.37463559 207.01808739 1578.94983864 C225.31408097 1575.06257108 243.607943 1571.16540712 261.90035123 1567.26130444 C270.52860309 1565.41994364 279.15744206 1563.58133716 287.78633595 1561.74298763 C295.30419394 1560.14110176 302.82129953 1558.53574414 310.33786583 1556.92780876 C314.93561732 1555.94514513 319.53407754 1554.96583223 324.13275146 1553.98749542 C326.26026743 1553.53415272 328.38748202 1553.07939306 330.51437378 1552.6231308 C333.40487981 1552.00324122 336.29639902 1551.38832071 339.18823242 1550.7746582 C340.45280415 1550.50155744 340.45280415 1550.50155744 341.74292278 1550.22293949 C345.262733 1549.48086599 348.38620536 1549 352 1549 C351.99859617 1548.06674552 351.99719235 1547.13349105 351.99574598 1546.17195613 C351.86815216 1461.22698103 351.74056941 1376.28197538 351.61891174 1241.4322052 C351.61765669 1239.9001156 351.61640162 1238.368026 351.61514655 1236.8359364 C351.58884252 1204.67714094 351.56439206 1172.51834429 351.5420829 1140.35954582 C351.53087432 1124.20517352 351.51930956 1108.05080148 351.50740803 1091.89642966 C351.50561479 1089.45960003 351.50383172 1087.02277039 351.50204908 1084.58594074 C351.47450846 1047.06113978 351.43932775 1009.53636508 351.38201904 972.01159668 C351.38078695 971.20474942 351.37955486 970.39790217 351.37828544 969.566605 C351.35837404 956.55779596 351.33782158 943.54898794 351.31718404 930.54018004 C351.25775302 893.0718676 351.20306045 855.60357538 351.17974186 818.13522053 C351.17901914 816.97951304 351.17901914 816.97951304 351.17828181 815.80045793 C351.16779005 798.88692171 351.15973631 781.97338524 351.15399115 765.05984677 C351.15163655 758.25445475 351.14893097 751.44906288 351.14610481 744.64367104 C351.14580397 743.89884959 351.14550312 743.15402814 351.14519316 742.38663635 C351.13532456 718.38654438 351.09688302 694.38660249 351.04346012 670.38657109 C350.98977773 646.21121785 350.96410662 622.03601023 350.97738411 597.86059587 C350.98559239 582.85765572 350.9695096 567.85522889 350.91282211 552.85238443 C350.87913756 543.28597679 350.87798108 533.7199262 350.90351368 524.15349416 C350.91713511 518.69830351 350.91638642 513.24414275 350.87605136 507.78906145 C350.83963227 502.82597812 350.84466263 497.8647282 350.88274022 492.90167309 C350.88916789 491.11759962 350.88050431 489.33339151 350.8548828 487.54949045 C350.71667508 477.27524631 351.24459748 470.88711125 358.76920349 463.12325146 C359.87344776 462.07224199 359.87344776 462.07224199 361 461 C362.0428996 459.7984839 363.07453504 458.58682244 364.08203125 457.35546875 C364.99079423 456.29827991 365.90094879 455.24228566 366.8125 454.1875 C367.84260379 452.99232183 368.87254712 451.79700534 369.90234375 450.6015625 C370.41651855 450.00504883 370.93069336 449.40853516 371.46044922 448.79394531 C372.96232192 447.04390399 374.45354174 445.2853954 375.94140625 443.5234375 C382.3331791 435.97117105 388.95353272 428.6812275 395.73828125 421.48046875 C398.49778375 418.5487465 401.19861336 415.5705559 403.875 412.5625 C407.08741854 408.96340145 410.41057152 405.52847102 413.8828125 402.1796875 C415.62336181 400.38775666 417.22439369 398.56935271 418.83984375 396.66796875 C424.09028386 390.62716984 429.81309284 385.03805102 435.47875977 379.39086914 C437.43295624 377.4420313 439.38175147 375.48790728 441.33007812 373.53320312 C446.89736993 367.96324538 452.44351527 362.4345522 458.44946289 357.33227539 C460.58309955 355.49898059 462.54210605 353.51813684 464.5 351.5 C467.78854528 348.17230537 471.16381624 345.04663559 474.71484375 342.00390625 C477.06478084 339.94319219 479.35033126 337.82525813 481.63427734 335.69213867 C487.03925322 330.64492597 492.55060795 325.84342492 498.3203125 321.2109375 C501.13253315 318.8906505 503.81797263 316.46928866 506.5 314 C511.82974393 309.10625769 517.36770251 304.53892684 523 300 C524.21827563 299.00231195 525.43567307 298.00355089 526.65234375 297.00390625 C534.16437643 290.84312049 541.76245386 284.82053793 549.50244141 278.94848633 C553.94563842 275.5774191 558.35106763 272.16367979 562.73510742 268.71606445 C571.28952576 261.99849007 580.02651892 255.62398063 588.96142578 249.42382812 C590.8799731 248.08383196 592.78427142 246.72643886 594.68359375 245.359375 C622.22023781 225.58745543 650.83162584 207.2565482 680 190 C681.05171387 189.37641602 682.10342773 188.75283203 683.18701172 188.11035156 C686.49633331 186.15117126 689.80988979 184.19936687 693.125 182.25 C694.17518311 181.62883301 695.22536621 181.00766602 696.30737305 180.36767578 C697.28101807 179.79774902 698.25466309 179.22782227 699.2578125 178.640625 C700.1255127 178.13047852 700.99321289 177.62033203 701.88720703 177.09472656 C704 176 704 176 706 176 C706 604.01 706 1032.02 706 1473 C746.26 1464.42 786.52 1455.84 828 1447 C847.87877427 1442.77033287 867.75756221 1438.54078466 887.63754654 1434.31681824 C894.06660604 1432.95072798 900.49557859 1431.58422857 906.92456055 1430.21777344 C909.62348876 1429.64413162 912.3224177 1429.07049321 915.02134705 1428.49685669 C915.69264218 1428.35417787 916.36393731 1428.21149905 917.05557472 1428.06449664 C921.75709517 1427.06523018 926.45863014 1426.06603205 931.16017151 1425.06686401 C949.47423757 1421.17474716 967.78798488 1417.28113335 986.1015625 1413.38671875 C1043.17385221 1401.25044511 1100.2481261 1389.1235616 1157.32450199 1377.00651932 C1214.11699598 1364.94973284 1270.90715625 1352.88201618 1327.69549179 1340.80565834 C1345.59156699 1336.99998073 1363.4879927 1333.19595706 1381.38472301 1329.39336163 C1390.22195277 1327.51566774 1399.05911702 1325.63766558 1407.89627361 1323.75962734 C1414.57581893 1322.34012506 1421.25539156 1320.92075155 1427.93502808 1319.50167847 C1454.96145923 1313.75986029 1481.98591655 1308.00913909 1509.00233459 1302.22036552 C1512.71434889 1301.42504865 1516.42643752 1300.63007972 1520.1385498 1299.83522034 C1522.54028556 1299.32090334 1524.94201899 1298.80657547 1527.34375 1298.29223633 C1528.51071663 1298.0423272 1529.67768326 1297.79241808 1530.88001251 1297.53493595 C1537.70050199 1296.07393982 1544.52035069 1294.60999613 1551.33972549 1293.14380646 C1555.47651883 1292.25496751 1559.61382688 1291.36854337 1563.75127411 1290.48275375 C1565.6582766 1290.07389528 1567.56504584 1289.66394719 1569.47156525 1289.25284195 C1572.0536998 1288.69614043 1574.6365998 1288.14314066 1577.21972656 1287.59106445 C1577.9728714 1287.42769687 1578.72601624 1287.26432928 1579.50198364 1287.09601116 C1582.3986689 1286.48024551 1585.02863573 1286 1588 1286 C1588.54928906 1296.71974369 1586.94164369 1307.27345454 1585.5625 1317.875 C1585.43161987 1318.89053955 1585.30073975 1319.9060791 1585.16589355 1320.95239258 C1572.78684845 1416.31278359 1549.71439183 1510.70813844 1498.71435547 1641.85205078 C1497.61537782 1644.50552614 1496.52509856 1647.16219065 1495.44580078 1649.82373047 C1494.10628983 1653.11920864 1492.745138 1656.40466309 1491.375 1659.6875 C1490.99770752 1660.62561523 1490.62041504 1661.56373047 1490.23168945 1662.53027344 C1489.87421631 1663.36977539 1489.51674316 1664.20927734 1489.1484375 1665.07421875 C1488.85114746 1665.79182373 1488.55385742 1666.50942871 1488.24755859 1667.2487793 C1485.70353859 1670.81986647 1480.80398063 1671.37066444 1476.71060181 1672.23570251 C1475.65911705 1672.46020332 1474.60763229 1672.68470413 1473.52428436 1672.916008 C1472.37625587 1673.1563401 1471.22822739 1673.39667221 1470.04541016 1673.64428711 C1468.20996517 1674.03412907 1468.20996517 1674.03412907 1466.33744049 1674.43184662 C1462.95275242 1675.15063867 1459.56690953 1675.86385165 1456.18085337 1676.57616687 C1452.55076807 1677.34085897 1448.92179439 1678.11079166 1445.29269409 1678.88014221 C1439.02914066 1680.2072702 1432.7649228 1681.53122165 1426.50024414 1682.85302734 C1416.52718736 1684.9573363 1406.55549219 1687.06805265 1396.58398438 1689.1796875 C1393.19697016 1689.89686595 1389.80994455 1690.61399053 1386.4229126 1691.33108521 C1385.58163984 1691.50919963 1384.74036707 1691.68731405 1383.8736012 1691.87082589 C1377.86948543 1693.14191785 1371.86517863 1694.41210484 1365.86077881 1695.68185425 C1344.96467923 1700.10085677 1324.07057002 1704.52905421 1303.1796875 1708.97265625 C1301.89702625 1709.24548368 1300.61436501 1709.51831112 1299.29283524 1709.79940605 C1292.9017736 1711.15891503 1286.51077554 1712.51872255 1280.11981201 1713.87869263 C1267.85119169 1716.48931982 1255.58213013 1719.09787229 1243.31304598 1721.70631862 C1241.34440056 1722.12486169 1239.37575806 1722.54341845 1237.40711594 1722.96197701 C1204.38229876 1729.98338169 1171.35526842 1736.99436263 1138.32831621 1744.00571632 C1092.30702585 1753.77568334 1046.28658912 1763.54964206 1000.26838493 1773.33413601 C998.31410163 1773.74965946 996.35981723 1774.16517778 994.40553284 1774.58069611 C971.56641256 1779.43674221 948.72742799 1784.29342646 925.88847864 1789.15027636 C920.42662584 1790.31177351 914.96476981 1791.47325549 909.50291121 1792.63472539 C906.0809806 1793.36240258 902.65905135 1794.09008617 899.2371254 1794.81778526 C885.11941971 1797.82001507 871.00162652 1800.82183157 856.88342452 1803.82172668 C852.33326743 1804.78856417 847.78312186 1805.75545586 843.23297501 1806.72234154 C840.66470783 1807.26808331 838.09643748 1807.81381016 835.52816391 1808.35952187 C819.17001132 1811.8355072 802.81323708 1815.31788607 786.45785522 1818.80688477 C778.21996622 1820.56410744 769.98150486 1822.31863896 761.74285698 1824.07229996 C755.22011663 1825.46092336 748.69811567 1826.85295101 742.17666721 1828.24762821 C738.22986314 1829.09081292 734.28235349 1829.93065412 730.33462334 1830.7694912 C728.5205916 1831.15566606 726.70685869 1831.54324773 724.89344978 1831.93233681 C722.43861384 1832.4588682 719.98277452 1832.98043338 717.52661133 1833.50073242 C716.81446346 1833.65474958 716.1023156 1833.80876675 715.36858749 1833.9674511 C712.1314628 1834.64791229 709.33241262 1835 706 1835 C706 1953.8 706 2072.6 706 2195 C709.96 2194.01 713.92 2193.02 718 2192 C722.09384535 2191.0918477 726.18783038 2190.20084982 730.2902832 2189.33398438 C732.05410969 2188.95855373 732.05410969 2188.95855373 733.85356903 2188.57553864 C737.07513943 2187.89026648 740.29710624 2187.20689705 743.51925874 2186.52436829 C746.99011836 2185.78865622 750.46044244 2185.05042598 753.93083191 2184.3125 C759.91746268 2183.03987974 765.90441843 2181.76879826 771.89160156 2180.4987793 C780.63024875 2178.64509636 789.36836543 2176.7889224 798.10635114 2174.93212414 C811.23823451 2172.1416669 824.3703954 2169.35251879 837.5028007 2166.56451893 C855.54807897 2162.73351573 873.59265251 2158.89920752 891.63671875 2155.0625 C892.92356882 2154.78888138 894.21041889 2154.51526276 895.53626442 2154.23335266 C900.68738241 2153.13807946 905.83849677 2152.04278918 910.98960209 2150.94745636 C920.0174905 2149.02777845 929.04546658 2147.10851328 938.07348633 2145.18945312 C965.65369523 2139.32674507 993.23344654 2133.46189121 1020.8125 2127.59375 C1021.54402534 2127.43809948 1022.27555069 2127.28244896 1023.02924347 2127.12208176 C1034.18618267 2124.74815019 1045.34309358 2122.37408564 1056.5 2120 C1102.46436869 2110.21921101 1148.42965721 2100.44276532 1194.39611816 2090.67181396 C1203.53492744 2088.72919808 1212.67372612 2086.78653238 1221.8125 2084.84375 C1222.46284966 2084.70549427 1223.11319931 2084.56723854 1223.78325653 2084.42479324 C1245.46011708 2079.81654169 1267.13646274 2075.20587248 1288.8125 2070.59375 C1289.54476177 2070.43794299 1290.27702354 2070.28213598 1291.03147507 2070.12160754 C1303.66873514 2067.43270327 1316.30596048 2064.74363583 1328.94317627 2062.05452347 C1339.25376989 2059.86050056 1349.56437273 2057.66652101 1359.875 2055.47265625 C1360.60150883 2055.31807174 1361.32801765 2055.16348723 1362.0765419 2055.00421834 C1384.71723127 2050.18683018 1407.35841325 2045.37176243 1430 2040.55859375 C1431.43744405 2040.25301744 1432.87488811 2039.94744111 1434.31233215 2039.64186478 C1447.85661595 2036.76259477 1461.40094134 2033.88352056 1474.94539642 2031.00505638 C1478.63040949 2030.2218737 1482.31538806 2029.43852883 1486.00036621 2028.65518188 C1490.76003951 2027.64343668 1495.51990263 2026.63259131 1500.27990723 2025.62240601 C1511.75355304 2023.18630202 1523.22481844 2020.73972249 1534.69115448 2018.26945782 C1539.67228248 2017.19634726 1544.65409744 2016.12644134 1549.63604403 2015.05713826 C1553.72319822 2014.17953142 1557.80934736 2013.2974252 1561.89479923 2012.41192961 C1565.00387053 2011.73942143 1568.11435473 2011.07350452 1571.22460938 2010.40649414 C1572.34719147 2010.16166101 1573.46977356 2009.91682789 1574.62637329 2009.66457558 C1575.66083588 2009.44394133 1576.69529846 2009.22330708 1577.7611084 2008.99598694 C1578.65721581 2008.80255738 1579.55332321 2008.60912783 1580.47658539 2008.40983677 C1583.03048553 2007.99504874 1585.41749903 2007.92600532 1588 2008 C1588.1295963 2014.61672006 1587.81128488 2021.0091503 1586.96875 2027.5703125 C1586.85762878 2028.46808914 1586.74650757 2029.36586578 1586.63201904 2030.29084778 C1586.26333225 2033.23673958 1585.88314154 2036.18095489 1585.5 2039.125 C1585.36750854 2040.15142609 1585.23501709 2041.17785217 1585.09851074 2042.23538208 C1572.87975942 2136.34239457 1550.38502534 2229.27469312 1503.625 2351.25 C1503.25226959 2352.1618103 1502.87953918 2353.07362061 1502.49551392 2354.01306152 C1500.37472277 2359.18787403 1498.2222181 2364.3480729 1496.0435791 2369.4987793 C1494.97825173 2372.05212563 1493.95226834 2374.61911409 1492.92871094 2377.18945312 C1492.2528896 2378.82981322 1491.57616993 2380.46980357 1490.8984375 2382.109375 C1490.60877106 2382.86293274 1490.31910461 2383.61649048 1490.0206604 2384.3928833 C1489.57996719 2385.43542267 1489.57996719 2385.43542267 1489.13037109 2386.49902344 C1488.88676849 2387.10534607 1488.64316589 2387.7116687 1488.3921814 2388.33636475 C1484.32041643 2393.20206095 1476.27072818 2393.99617741 1470.37402344 2395.20361328 C1469.41876392 2395.40538713 1468.46350441 2395.60716097 1467.47929764 2395.81504917 C1464.27405329 2396.49031875 1461.06674154 2397.15520199 1457.859375 2397.8203125 C1455.53981333 2398.30707732 1453.2204 2398.79454949 1450.90112305 2399.28266907 C1445.86049849 2400.34221358 1440.81900419 2401.39750991 1435.7767334 2402.44918823 C1427.60631001 2404.15353177 1419.43819369 2405.8687733 1411.27050781 2407.58618164 C1410.57120069 2407.73320908 1409.87189357 2407.88023651 1409.15139532 2408.03171933 C1406.28046551 2408.63532461 1403.40953863 2409.23894379 1400.53863311 2409.84266454 C1396.09226079 2410.77764246 1391.64572783 2411.71185206 1387.19907641 2412.64550167 C1364.39617638 2417.43356547 1341.60164547 2422.26018773 1318.8125 2427.11328125 C1318.01415867 2427.28329163 1317.21581734 2427.45330201 1316.39328384 2427.62846422 C1306.64007744 2429.70559846 1296.88719121 2431.78423372 1287.13441753 2433.86339867 C1278.04944186 2435.80014613 1268.96418311 2437.73556443 1259.87890625 2439.67089844 C1258.22627254 2440.02294458 1256.57363888 2440.37499091 1254.92100525 2440.72703743 C1252.44963499 2441.25349148 1249.97826432 2441.77994361 1247.5068922 2442.30638897 C1242.59658078 2443.35237745 1237.68628961 2444.39846098 1232.77601528 2445.44462359 C1202.06819373 2451.98708442 1171.35814506 2458.51904474 1140.64716339 2465.04665375 C1136.74806564 2465.87541115 1132.84897653 2466.70420921 1128.94989014 2467.53302002 C1116.08739658 2470.26713211 1103.22486673 2473.00107341 1090.36230469 2475.73486328 C1065.02371958 2481.12029739 1039.68532682 2486.50663636 1014.34699821 2491.89327717 C1012.37696779 2492.31208167 1010.40693648 2492.73088201 1008.43690491 2493.14968109 C964.79024745 2502.42831671 921.14486005 2511.71291374 877.5 2521 C833.19836589 2530.42683966 788.89616206 2539.85099034 744.59269238 2549.26919985 C742.62390035 2549.68773377 740.65510884 2550.10627012 738.68631744 2550.52480698 C717.82562633 2554.9594845 696.96486499 2559.39383164 676.10409546 2563.82814026 C635.79647122 2572.39621363 595.48900945 2580.96505057 555.18200016 2589.53601646 C552.95985295 2590.00853692 550.73770475 2590.48105269 548.51555634 2590.9535675 C529.65725827 2594.96358064 510.79905324 2598.97403085 491.94104767 2602.98541927 C490.38161732 2603.31713337 488.82218688 2603.64884705 487.26275635 2603.9805603 C486.49583088 2604.14369636 485.72890541 2604.30683241 484.93873978 2604.47491199 C478.97317467 2605.74384801 473.00754568 2607.01248351 467.04190302 2608.28105491 C461.37662308 2609.48578492 455.71142236 2610.69088707 450.04626799 2611.89620739 C446.62432041 2612.62424076 443.20233304 2613.35208596 439.78025055 2614.07948494 C425.71813855 2617.06860258 411.65846962 2620.06824154 397.60658419 2623.10511434 C395.60197348 2623.53819921 393.5972526 2623.97076993 391.59248638 2624.40313435 C385.36012856 2625.7473018 379.12850953 2627.09465404 372.89845276 2628.44944763 C370.7050508 2628.92296331 368.51160742 2629.39628722 366.31811523 2629.86938477 C365.32382696 2630.08716898 364.32953869 2630.30495319 363.30512047 2630.52933693 C361.93953971 2630.82250581 361.93953971 2630.82250581 360.54637146 2631.12159729 C359.75967795 2631.29236062 358.97298445 2631.46312395 358.16245174 2631.63906193 C356 2632 356 2632 352 2632 C352 2394.07 352 2156.14 352 1911 C324.28 1916.94 296.56 1922.88 268 1929 C248.20967926 1933.20742835 228.41894642 1937.41253034 208.62518692 1941.60369492 C196.74791207 1944.11862597 184.87095419 1946.63505381 172.99411082 1949.15202165 C170.84110321 1949.6082803 168.68808503 1950.06448901 166.5350666 1950.52069664 C146.48369408 1954.76971206 126.43604813 1959.03595541 106.39128393 1963.31603473 C101.15841552 1964.43337056 95.9253976 1965.5500036 90.692276 1966.66615295 C89.96414635 1966.82145865 89.23601669 1966.97676434 88.4858225 1967.13677627 C85.57379535 1967.75788845 82.66176608 1968.37899064 79.74972069 1969.00001729 C71.27951102 1970.80643379 62.8098821 1972.61551989 54.34120059 1974.42908752 C48.45400245 1975.68957918 42.56585907 1976.94559753 36.67736435 1978.20001984 C34.2693154 1978.71381014 31.86159339 1979.22913555 29.45422745 1979.74611664 C26.1654002 1980.45221536 22.87546287 1981.15289733 19.58520508 1981.85229492 C18.63707789 1982.05724799 17.68895071 1982.26220106 16.7120924 1982.47336483 C15.82220277 1982.66138951 14.93231314 1982.8494142 14.01545715 1983.0431366 C13.25865567 1983.20495517 12.50185419 1983.36677374 11.72211933 1983.5334959 C7.83410503 1984.19980563 3.92271721 1984.59488675 0 1985 C0.00113916 1985.87264897 0.00227832 1986.74529794 0.003452 1987.64439082 C0.07065451 2039.41842307 0.12209415 2091.19245068 0.15319599 2142.96651785 C0.1569479 2149.1895927 0.16083089 2155.41266747 0.16479492 2161.63574219 C0.16558185 2162.87459172 0.16636878 2164.11344126 0.16717956 2165.38983169 C0.18021683 2185.42256617 0.20386139 2205.4552747 0.23145839 2225.48799381 C0.25955937 2246.0588345 0.27618617 2266.62966165 0.28226548 2287.20052075 C0.2863722 2299.88350384 0.29932098 2312.56641357 0.3237494 2325.24937406 C0.33966456 2333.95845931 0.34438733 2342.66750688 0.34050413 2351.3766056 C0.33859155 2356.3936937 0.34142598 2361.41065401 0.35761642 2366.42771912 C0.37237513 2371.03515234 0.37285057 2375.64237365 0.36269668 2380.24981728 C0.36144452 2381.90292558 0.36511366 2383.55604792 0.37464955 2385.20912918 C0.58845147 2424.61426149 -12.7623178 2461.7243335 -35.67578125 2493.54296875 C-40.44044286 2500.15978506 -44.9982053 2506.89520252 -49.49514771 2513.69598389 C-51.87066603 2517.28718954 -54.25582114 2520.87198774 -56.640625 2524.45703125 C-57.40397911 2525.60486084 -57.40397911 2525.60486084 -58.18275452 2526.77587891 C-64.43555089 2536.16947803 -70.7486406 2545.52238418 -77.0625 2554.875 C-77.67064545 2555.77597412 -78.27879089 2556.67694824 -78.90536499 2557.60522461 C-82.02088271 2562.2207153 -85.13699608 2566.83580337 -88.25341797 2571.45068359 C-93.77579091 2579.62913787 -99.29196297 2587.81177347 -104.80880737 2595.99395752 C-115.2575888 2611.49024147 -125.71210666 2626.98264787 -136.16955566 2642.4730835 C-144.30179381 2654.51938075 -152.43116087 2666.56761001 -160.55767822 2678.61776733 C-162.36634595 2681.29966774 -164.17511068 2683.98150271 -165.98388672 2686.66333008 C-171.62669203 2695.03010887 -177.26841903 2703.39761078 -182.90719604 2711.7671051 C-185.51841628 2715.6427139 -188.13018701 2719.51795157 -190.74200439 2723.39315796 C-191.97368405 2725.22095524 -193.20509947 2727.04893061 -194.43621826 2728.87710571 C-200.26999164 2737.5399912 -206.11226032 2746.1968281 -212.015625 2754.8125 C-212.44598053 2755.44250412 -212.87633606 2756.07250824 -213.31973267 2756.72160339 C-217.63721244 2763.00353382 -222.26378428 2769.02926247 -227 2775 C-227.70382812 2775.89847656 -228.40765625 2776.79695313 -229.1328125 2777.72265625 C-235.64961989 2785.88670093 -242.77896747 2793.46194653 -250 2801 C-250.50354004 2801.5269043 -251.00708008 2802.05380859 -251.52587891 2802.59667969 C-257.11134874 2808.40892226 -262.89908408 2813.74773755 -269.20703125 2818.765625 C-272.06842339 2821.05473871 -274.84240157 2823.42850025 -277.625 2825.8125 C-289.57279254 2835.76641772 -302.49887253 2844.31607858 -316 2852 C-316.78407227 2852.45342773 -317.56814453 2852.90685547 -318.37597656 2853.37402344 C-346.65420263 2869.66202052 -376.74146199 2880.80599353 -408.55078125 2887.84375 C-409.37469297 2888.02763401 -410.1986047 2888.21151802 -411.04748344 2888.40097427 C-438.88100591 2894.61086849 -466.8021399 2900.42985249 -494.70445561 2906.32098347 C-503.90183579 2908.26302749 -513.09839094 2910.20896838 -522.29492188 2912.1550293 C-524.00255494 2912.51636474 -525.71018828 2912.87769891 -527.41782188 2913.23903179 C-529.98657965 2913.78257783 -532.55533679 2914.32612684 -535.12409055 2914.86969179 C-541.13771797 2916.14218687 -547.15143899 2917.41423896 -553.16519165 2918.68614197 C-583.49186242 2925.10053456 -613.81318288 2931.5399296 -644.13233566 2937.98975372 C-649.31469382 2939.09216735 -654.4971001 2940.19435468 -659.67950535 2941.29654694 C-670.00557313 2943.49269663 -680.33159204 2945.68907593 -690.6575613 2947.88568878 C-707.656857 2951.5018727 -724.65648182 2955.11650682 -741.65625 2958.73046875 C-742.64032943 2958.93967418 -742.64032943 2958.93967418 -743.64428926 2959.15310597 C-750.94055769 2960.70421931 -758.23683273 2962.25530157 -765.53311157 2963.80636597 C-778.1344935 2966.48520619 -790.73584583 2969.16418563 -803.33719277 2971.84319043 C-805.3246452 2972.26571566 -807.31209807 2972.68823882 -809.29955101 2973.11076164 C-827.6004454 2977.00144943 -845.90122229 2980.8926895 -864.20192337 2984.7842865 C-875.90542166 2987.27298582 -887.60895048 2989.76154158 -899.3125 2992.25 C-899.95909199 2992.38748154 -900.60568398 2992.52496307 -901.27186966 2992.66661072 C-947.28762375 3002.45066871 -993.30567173 3012.22390258 -1039.32450199 3021.99348068 C-1082.4929202 3031.15793824 -1125.66056474 3040.32601391 -1168.8261537 3049.50378913 C-1173.36522191 3050.468874 -1177.90430286 3051.43389892 -1182.44338989 3052.39889526 C-1207.76314114 3057.78181915 -1233.08265935 3063.1658337 -1258.40122509 3068.55433083 C-1269.91545588 3071.00487527 -1281.42981995 3073.45479286 -1292.94426441 3075.90433311 C-1299.75604848 3077.35348268 -1306.56775311 3078.80300336 -1313.37924194 3080.25354004 C-1346.23614169 3087.25025247 -1379.10541087 3094.18253963 -1412 3101 C-1412.12251121 3094.01742827 -1411.86351208 3087.25625997 -1410.96875 3080.33203125 C-1410.85762878 3079.43566956 -1410.74650757 3078.53930786 -1410.63201904 3077.61578369 C-1410.26390351 3074.68009528 -1409.88343455 3071.74622496 -1409.5 3068.8125 C-1409.36750854 3067.78857147 -1409.23501709 3066.76464294 -1409.09851074 3065.70968628 C-1398.25015668 2982.31798678 -1379.1296647 2900.52962529 -1351.70129395 2821.0368042 C-1351.01926892 2819.05596371 -1350.34231705 2817.07346557 -1349.66699219 2815.09033203 C-1340.13723307 2787.14853924 -1329.13107966 2759.74032826 -1317.53045654 2732.59817505 C-1316.9733738 2731.29416742 -1316.4188415 2729.98906696 -1315.86700439 2728.68283081 C-1315.11229301 2726.90166439 -1314.34363201 2725.12642766 -1313.57421875 2723.3515625 C-1313.14713623 2722.35979004 -1312.72005371 2721.36801758 -1312.2800293 2720.34619141 C-1310.74231854 2717.52769048 -1309.15527092 2716.34427055 -1306.06467056 2715.42327213 C-1304.95567713 2715.19104025 -1304.95567713 2715.19104025 -1303.82427979 2714.95411682 C-1302.96907116 2714.7716871 -1302.11386253 2714.58925737 -1301.23273849 2714.40129948 C-1300.29258518 2714.20772075 -1299.35243187 2714.01414202 -1298.38378906 2713.81469727 C-1297.38477192 2713.60356765 -1296.38575478 2713.39243803 -1295.35646439 2713.17491055 C-1291.99411458 2712.46591702 -1288.62988924 2711.76625459 -1285.265625 2711.06640625 C-1282.86303239 2710.56155681 -1280.46056952 2710.05608955 -1278.05822754 2709.55004883 C-1272.86587439 2708.4575188 -1267.67273756 2707.36883429 -1262.47888184 2706.28347778 C-1254.15014341 2704.54287711 -1245.82343486 2702.79268784 -1237.49707031 2701.04077148 C-1234.63788302 2700.4392634 -1231.77868866 2699.83778891 -1228.91949463 2699.23631287 C-1228.20585715 2699.08617684 -1227.49221967 2698.93604081 -1226.75695682 2698.7813552 C-1221.62558181 2697.70189986 -1216.4939567 2696.62363862 -1211.36224365 2695.54579163 C-1182.790628 2689.54393287 -1154.23294335 2683.4773698 -1125.67762375 2677.39849472 C-1119.72392386 2676.13116033 -1113.77001726 2674.86479769 -1107.81612051 2673.59838855 C-1097.15968252 2671.33173458 -1086.50333316 2669.06466447 -1075.84706652 2666.79720509 C-1051.08614287 2661.52855515 -1026.3244398 2656.26357079 -1001.5626291 2650.99909157 C-997.64420212 2650.1660141 -993.72578093 2649.33290945 -989.80736482 2648.49978083 C-945.0984793 2638.9938437 -900.38732164 2629.49862615 -855.67549801 2620.00651932 C-810.55317045 2610.42725575 -765.43180589 2600.84348652 -720.3125 2591.25 C-719.342325 2591.04371727 -719.342325 2591.04371727 -718.35255051 2590.83326721 C-706.00995798 2588.208927 -693.66739512 2585.58444729 -681.32485962 2582.95983887 C-662.99141578 2579.06128247 -644.65785889 2575.16325815 -626.32421875 2571.265625 C-625.66754282 2571.12601907 -625.01086689 2570.98641315 -624.3342917 2570.84257674 C-618.36089128 2569.57266309 -612.38748964 2568.30275516 -606.41408634 2567.03285503 C-597.20809753 2565.07573121 -588.00211717 2563.11856765 -578.79614258 2561.16137695 C-577.48707676 2560.88306966 -576.17801094 2560.60476238 -574.86894512 2560.32645512 C-572.9026961 2559.90843072 -570.93644709 2559.49040629 -568.97019809 2559.07238179 C-546.96776195 2554.39466525 -524.965302 2549.71706072 -502.96281958 2545.03956187 C-497.90412604 2543.96413549 -492.84543407 2542.88870171 -487.78674316 2541.81326294 C-487.07709679 2541.66239758 -486.36745042 2541.51153223 -485.63629961 2541.35609519 C-482.08200849 2540.60047996 -478.52771758 2539.84486372 -474.97342682 2539.08924675 C-466.87015758 2537.36655092 -458.76688296 2535.6438804 -450.66359711 2533.92126274 C-448.11810458 2533.3801193 -445.57261807 2532.83894756 -443.02713776 2532.29774666 C-436.93214942 2531.00189047 -430.83708319 2529.70640356 -424.74182129 2528.41183472 C-414.31637153 2526.1970964 -403.89167784 2523.97906933 -393.4706192 2521.74374676 C-389.03536952 2520.79247351 -384.59968673 2519.84322862 -380.16398621 2518.89406013 C-378.09539521 2518.45072245 -376.02704068 2518.00627983 -373.9589386 2517.56066704 C-371.14571908 2516.95451049 -368.3317457 2516.35198117 -365.51757812 2515.75024414 C-364.69097687 2515.57104746 -363.86437561 2515.39185078 -363.01272583 2515.20722389 C-359.95205958 2514.55570258 -357.13903514 2514 -354 2514 C-354 2364.51 -354 2215.02 -354 2061 C-381.72 2066.94 -409.44 2072.88 -438 2079 C-473.16446198 2086.49326279 -473.16446198 2086.49326279 -490.25634766 2090.12255859 C-497.38048306 2091.63547211 -504.50443229 2093.149261 -511.62835932 2094.66315532 C-529.41857566 2098.44366002 -547.2092338 2102.22208383 -565 2106 C-566.09811036 2106.23318735 -566.09811036 2106.23318735 -567.21840477 2106.47108555 C-594.68053129 2112.30273927 -622.14283119 2118.1335766 -649.60526401 2123.96378773 C-690.98002526 2132.74756299 -732.35373451 2141.53626618 -773.72576571 2150.33289146 C-775.68899123 2150.75031707 -777.65221762 2151.1677386 -779.61544418 2151.5851593 C-799.07703746 2155.72308836 -818.53852984 2159.8614919 -838 2164 C-858.11619277 2168.27773575 -878.23241407 2172.55533723 -898.34873629 2176.83246422 C-900.31109329 2177.24970091 -902.27344944 2177.66694166 -904.23580551 2178.08418274 C-935.71720093 2184.77780187 -967.19928132 2191.468187 -998.68260312 2198.15274 C-1000.98300336 2198.64116315 -1003.28340154 2199.12959603 -1005.58379936 2199.61803055 C-1020.97148992 2202.88521864 -1036.35927436 2206.1519636 -1051.74735165 2209.41732979 C-1059.34984576 2211.03059397 -1066.9522831 2212.6441256 -1074.5546875 2214.2578125 C-1075.30502486 2214.41707576 -1076.05536223 2214.57633903 -1076.82843709 2214.74042845 C-1098.32490519 2219.30330039 -1119.81901165 2223.87714035 -1141.31092715 2228.46140742 C-1146.60543437 2229.59070998 -1151.90005801 2230.71946527 -1157.19476318 2231.84783936 C-1157.9283078 2232.00417162 -1158.66185242 2232.16050389 -1159.41762567 2232.3215735 C-1162.34384959 2232.94519983 -1165.27007588 2233.56881505 -1168.19631624 2234.19236422 C-1176.64104211 2235.99187013 -1185.08532634 2237.79341536 -1193.52884686 2239.5985688 C-1199.34279789 2240.84135857 -1205.15746858 2242.08075648 -1210.97240829 2243.31891251 C-1213.3407814 2243.82381794 -1215.70890444 2244.32989804 -1218.07675552 2244.83724594 C-1221.30068333 2245.52788832 -1224.52546525 2246.21439537 -1227.75048828 2246.89990234 C-1228.68026489 2247.10015266 -1229.6100415 2247.30040298 -1230.56799316 2247.5067215 C-1235.70295474 2248.59304584 -1240.78199847 2249.427248 -1246 2250 C-1245.3887367 2237.91856066 -1244.01521165 2225.98924627 -1242.4375 2214 C-1242.3075061 2213.00812683 -1242.17751221 2212.01625366 -1242.0435791 2210.99432373 C-1231.15169698 2128.47971783 -1211.74958098 2047.76573826 -1184.71490479 1969.08154297 C-1184.01801457 1967.0524519 -1183.32402278 1965.02238756 -1182.63037109 1962.9921875 C-1172.24754209 1932.67460071 -1160.13972456 1903.07421329 -1147.19824219 1873.76611328 C-1145.91964631 1871.10501678 -1145.91964631 1871.10501678 -1145.55181885 1868.49249268 C-1143.69645128 1865.51244762 -1143.0205058 1865.43136531 -1139.73071289 1864.54434204 C-1137.8161702 1864.1249698 -1135.89614456 1863.73022127 -1133.97265625 1863.35400391 C-1132.91611753 1863.12926927 -1131.8595788 1862.90453463 -1130.77102375 1862.67298985 C-1127.20553003 1861.92005268 -1123.63436016 1861.19864487 -1120.0625 1860.4765625 C-1117.50847498 1859.94347707 -1114.9548696 1859.40837773 -1112.4016571 1858.87141418 C-1106.86794316 1857.71061746 -1101.33116719 1856.56551866 -1095.79208374 1855.43063354 C-1086.89029373 1853.60644878 -1077.99521437 1851.75077562 -1069.10083008 1849.89086914 C-1066.03192577 1849.24953087 -1062.96296279 1848.60847388 -1059.89396667 1847.96757507 C-1059.12614327 1847.807223 -1058.35831987 1847.64687093 -1057.56722909 1847.48165971 C-1052.02668909 1846.32508611 -1046.48522243 1845.17302075 -1040.9433136 1844.02302551 C-1019.0168497 1839.47249573 -997.10308585 1834.86509816 -975.19921875 1830.20703125 C-974.4464518 1830.04696909 -973.69368486 1829.88690693 -972.91810679 1829.7219944 C-965.31611526 1828.10549404 -957.71436906 1826.48784274 -950.11280721 1824.86932302 C-940.14320715 1822.74665456 -930.1727489 1820.62804468 -920.2019043 1818.51123047 C-919.44010176 1818.34949514 -918.67829922 1818.18775981 -917.89341176 1818.02112341 C-914.82331584 1817.36932824 -911.75321706 1816.71754653 -908.68311244 1816.06579232 C-900.34167207 1814.29495931 -892.00040738 1812.52329939 -883.65917969 1810.75146484 C-882.91938869 1810.59432023 -882.1795977 1810.43717561 -881.4173888 1810.27526903 C-833.94337354 1800.19081766 -786.47178579 1790.09493982 -739 1780 C-719.53724993 1775.86121973 -700.07447211 1771.72257003 -680.61160278 1767.58435059 C-677.99862502 1767.02877585 -675.38564902 1766.4731928 -672.77267456 1765.91760254 C-641.08049131 1759.1789908 -609.3875167 1752.44411954 -577.69313836 1745.71583915 C-575.35104822 1745.21864082 -573.00896145 1744.72142659 -570.66687584 1744.22420692 C-555.85946785 1741.08062976 -541.05202744 1737.93720601 -526.2442314 1734.79545718 C-517.89581322 1733.02417423 -509.54747407 1731.25251912 -501.19921875 1729.48046875 C-500.45744078 1729.32301737 -499.71566281 1729.16556598 -498.95140672 1729.00334334 C-478.25461945 1724.60999247 -457.56108681 1720.20166713 -436.87113762 1715.77622604 C-432.95680043 1714.93901801 -429.04232428 1714.10246162 -425.12782288 1713.26602173 C-423.87340236 1712.99796785 -422.61898184 1712.72991398 -421.32654858 1712.45373726 C-418.84895251 1711.92430625 -416.3713531 1711.39489086 -413.89375019 1710.86549187 C-406.81912185 1709.35342016 -399.74530721 1707.83761169 -392.6720953 1706.31892872 C-388.40039844 1705.40256535 -384.12801274 1704.48944742 -379.8554287 1703.57723045 C-377.89727982 1703.15839453 -375.93943738 1702.73812301 -373.98192787 1702.31630898 C-371.33915225 1701.74695878 -368.69536868 1701.182551 -366.05126953 1700.61938477 C-365.28476987 1700.45294086 -364.51827021 1700.28649696 -363.72854328 1700.11500931 C-360.37587991 1699.40596247 -357.44761428 1699 -354 1699 C-354.00304162 1697.17523902 -354.00304162 1697.17523902 -354.00614469 1695.31361419 C-354.07547485 1653.66082178 -354.14191203 1612.00802494 -354.20629883 1570.35522461 C-354.20824488 1569.09654052 -354.20824488 1569.09654052 -354.21023025 1567.81242848 C-354.34916355 1477.90033174 -354.46906427 1387.98823349 -354.55046082 1298.07606506 C-354.55227367 1296.07889269 -354.55408654 1294.08172031 -354.55589943 1292.08454793 C-354.59389427 1250.16344825 -354.62921158 1208.24234665 -354.66143582 1166.32124214 C-354.67762596 1145.26290816 -354.69433061 1124.20457461 -354.71152174 1103.14624142 C-354.71411197 1099.96966976 -354.71668751 1096.79309807 -354.71926244 1093.61652639 C-354.75904259 1044.70133045 -354.80985777 995.78617655 -354.89263916 946.87103271 C-354.89441884 945.81929993 -354.89619853 944.76756714 -354.89803214 943.68396366 C-354.926793 926.72689857 -354.95647991 909.76983509 -354.98628973 892.8127718 C-355.07213628 843.97164926 -355.15113603 795.13055907 -355.18481731 746.28936863 C-355.18551327 745.28500081 -355.18620923 744.28063299 -355.18692627 743.24582978 C-355.20208116 721.19758008 -355.21371428 699.14932997 -355.22201278 677.10107667 C-355.22541386 668.22961635 -355.22932193 659.35815627 -355.23340416 650.48669624 C-355.23383871 649.5157533 -355.23427327 648.54481037 -355.23472099 647.54444491 C-355.24897485 616.25988352 -355.30449877 584.97556236 -355.38166871 553.69109792 C-355.45921568 522.17720288 -355.49628888 490.66354093 -355.47711184 459.14954806 C-355.4744718 454.79444616 -355.47229583 450.43934415 -355.47039986 446.08424187 C-355.47001141 445.23051936 -355.46962296 444.37679685 -355.46922275 443.49720396 C-355.4642746 429.97990204 -355.50306881 416.46309339 -355.56012821 402.94592587 C-355.61534009 389.65336718 -355.6242002 376.36144768 -355.58381358 363.06882843 C-355.5615328 355.27584005 -355.57476834 347.48487924 -355.64082102 339.69212774 C-355.68590088 333.90403939 -355.66300206 328.11779826 -355.61381968 322.32981666 C-355.60453985 320.00473809 -355.617031 317.6794437 -355.65405818 315.35464146 C-355.82384818 303.97178096 -355.76064347 295.1955365 -347.79064864 286.47124964 C-346.13156387 284.80296562 -344.43777653 283.19590212 -342.69714049 281.61308646 C-339.7971443 278.85671797 -337.30018185 275.76369027 -334.75 272.6875 C-330.57639431 267.79264088 -326.32344613 262.97835493 -322 258.21484375 C-320.20396471 256.22587498 -318.44046697 254.21436806 -316.6875 252.1875 C-312.68910468 247.60218427 -308.55767844 243.1409178 -304.41723633 238.68432617 C-302.28005465 236.38274297 -300.1493229 234.07554845 -298.02514648 231.76196289 C-288.69950995 221.64375039 -279.0342288 211.88050716 -269.29345703 202.16308594 C-266.60462042 199.47966144 -263.92124044 196.79086208 -261.23828125 194.1015625 C-259.50552925 192.36947057 -257.77246747 190.63768846 -256.0390625 188.90625 C-255.24932037 188.11448364 -254.45957825 187.32271729 -253.64590454 186.50695801 C-249.48262923 182.36106369 -245.2462954 178.37172278 -240.77401733 174.55993652 C-238.93527429 172.94308511 -237.21386827 171.24797686 -235.5 169.5 C-232.53264677 166.48586418 -229.42654708 163.70082667 -226.22265625 160.94140625 C-223.67023117 158.71195939 -221.18112486 156.41998618 -218.6875 154.125 C-214.1482504 149.98074035 -209.46541704 146.07421602 -204.68359375 142.21484375 C-202.05291443 140.04367173 -199.52057576 137.79758643 -197 135.5 C-191.82495823 130.79541657 -186.43932438 126.3938261 -181 122 C-179.73378497 120.96556556 -178.46819657 119.93036378 -177.203125 118.89453125 C-169.53927476 112.62663968 -161.81799395 106.46193985 -153.93359375 100.47265625 C-151.6696694 98.74841487 -149.41303555 97.01482406 -147.15625 95.28125 C-135.90918888 86.65526853 -124.56922244 78.18918549 -113 70 C-112.14245117 69.39220703 -111.28490234 68.78441406 -110.40136719 68.15820312 C-83.56839177 49.19122732 -55.93921925 31.37368591 -27.68554688 14.60009766 C-24.76852576 12.86208344 -21.8607318 11.10918264 -18.953125 9.35546875 C-16.94809315 8.15335143 -14.9428886 6.9515221 -12.9375 5.75 C-11.99092529 5.17644775 -11.04435059 4.60289551 -10.0690918 4.01196289 C-9.18906494 3.48723389 -8.30903809 2.96250488 -7.40234375 2.421875 C-6.23433228 1.71949707 -6.23433228 1.71949707 -5.04272461 1.00292969 C-3 0 -3 0 0 0 Z " fill="#232020" transform="translate(1412,0)"/>
<path d="M0 0 C0.54928184 10.71960293 -1.05791109 21.27361844 -2.4375 31.875 C-2.6343187 33.40030334 -2.6343187 33.40030334 -2.83511353 34.9564209 C-15.44367906 131.94942688 -39.10201535 227.82179825 -89.63221741 356.33166504 C-91.35936563 360.44642632 -93.04357128 364.57610462 -94.703125 368.71875 C-95.48926616 370.64596275 -96.27569869 372.57305668 -97.0625 374.5 C-97.39612549 375.35464844 -97.72975098 376.20929687 -98.07348633 377.08984375 C-98.54951294 378.23646484 -98.54951294 378.23646484 -99.03515625 379.40625 C-99.2969165 380.05916016 -99.55867676 380.71207031 -99.82836914 381.38476562 C-102.35242387 384.86447933 -107.37921209 385.40898896 -111.38500977 386.253479 C-112.99495316 386.59633926 -112.99495316 386.59633926 -114.63742065 386.94612598 C-115.8102359 387.19110168 -116.98305115 387.43607737 -118.19140625 387.68847656 C-119.44156525 387.95335971 -120.69172424 388.21824286 -121.97976685 388.49115276 C-125.44196051 389.22462893 -128.90530798 389.95252091 -132.36886215 390.67954135 C-136.09077179 391.46185447 -139.81155967 392.24946785 -143.5324707 393.03651428 C-149.96865633 394.3971986 -156.40549237 395.75476801 -162.84277344 397.11026001 C-173.09670851 399.26951837 -183.34926226 401.43528936 -193.6015625 403.60229492 C-196.22052022 404.15581806 -198.83948018 404.70933058 -201.45844078 405.26284009 C-203.21533054 405.63415438 -204.97221861 406.00547667 -206.729105 406.37680691 C-212.96201005 407.69411629 -219.19508688 409.01061087 -225.42822266 410.326828 C-248.26825069 415.15021182 -271.10493445 419.98906901 -293.9375 424.84765625 C-294.67083919 425.00370465 -295.40417838 425.15975304 -296.15973997 425.32053018 C-304.93139695 427.18716305 -313.70284574 429.05477311 -322.47420609 430.92279929 C-330.50042735 432.63210939 -338.5268217 434.34060617 -346.55322266 436.04907227 C-348.73867932 436.51426476 -350.92413565 436.97945884 -353.10959184 437.44465357 C-354.5619296 437.75379717 -356.01426758 438.06293972 -357.46660578 438.37208122 C-361.79272228 439.29293536 -366.11882455 440.21385625 -370.44491494 441.13483304 C-399.7727443 447.37840088 -429.10212234 453.61467688 -458.43185425 459.84930038 C-462.36920636 460.6862648 -466.30655218 461.52325883 -470.24389648 462.36026001 C-481.97859912 464.85482176 -493.71331172 467.34933658 -505.44804001 469.84377766 C-528.49132805 474.74207758 -551.53447055 479.64106209 -574.57760465 484.54008615 C-583.86192453 486.51395418 -593.14625448 488.48777483 -602.43059337 490.46155345 C-608.3951367 491.72957006 -614.35967812 492.99759568 -620.32421875 494.265625 C-620.98019554 494.40508207 -621.63617234 494.54453913 -622.31202722 494.68822217 C-641.27551227 498.71976131 -660.23888153 502.75184462 -679.2021637 506.784338 C-690.25168746 509.13397129 -701.30123936 511.48347226 -712.35080814 513.83289385 C-713.65876568 514.11099927 -714.96672301 514.38910564 -716.27468014 514.66721296 C-749.0115372 521.62795276 -781.74917419 528.58500617 -814.48828125 535.53515625 C-815.2362198 535.69393611 -815.98415834 535.85271598 -816.7547617 536.01630735 C-825.13807198 537.795996 -833.521396 539.57561999 -841.90472412 541.35522461 C-844.97814956 542.00764903 -848.05157484 542.66007424 -851.125 543.3125 C-851.88600541 543.47404572 -852.64701082 543.63559143 -853.431077 543.80203247 C-900.45271494 553.78378497 -947.47201901 563.77644282 -994.4885869 573.78204966 C-996.68182184 574.24879163 -998.87505798 574.71552799 -1001.06829453 575.18226242 C-1008.31483547 576.72437206 -1015.56137264 578.26649945 -1022.8079071 579.80863953 C-1023.5221664 579.96064145 -1024.23642569 580.11264337 -1024.9723292 580.26925141 C-1028.56764206 581.03437271 -1032.16295402 581.7994982 -1035.75826454 582.56463051 C-1064.98195655 588.7838259 -1094.2060548 595.00111026 -1123.43077564 601.21546936 C-1124.83874836 601.51486176 -1126.24672101 601.81425446 -1127.6546936 602.11364746 C-1128.34549733 602.26054079 -1129.03630106 602.40743412 -1129.74803823 602.55877876 C-1134.47654384 603.56427597 -1139.2050036 604.56998854 -1143.93344116 605.57580566 C-1146.51576611 606.12508753 -1149.09809234 606.67436335 -1151.68041992 607.22363281 C-1153.55504614 607.6223761 -1153.55504614 607.6223761 -1155.4675436 608.0291748 C-1164.82146642 610.01847772 -1174.17620589 612.00391666 -1183.53123569 613.98800659 C-1189.67650131 615.29207011 -1195.82033042 616.6026095 -1201.96274853 617.92001915 C-1205.56576061 618.6921524 -1209.16956954 619.46051649 -1212.77356148 620.22806168 C-1214.40147903 620.57575151 -1216.02902029 620.92520882 -1217.65614128 621.27660751 C-1219.83825211 621.74774535 -1222.02158268 622.21274977 -1224.20532227 622.67626953 C-1226.00925194 623.06324509 -1226.00925194 623.06324509 -1227.84962463 623.45803833 C-1230.65122266 623.93999955 -1233.16741937 624.11292085 -1236 624 C-1234.80450558 609.67179811 -1233.28787769 595.42890976 -1231.3125 581.1875 C-1231.18339233 580.25079468 -1231.05428467 579.31408936 -1230.92126465 578.34899902 C-1221.66186944 511.47309435 -1207.27928938 445.41811409 -1187 381 C-1186.73616516 380.15949097 -1186.47233032 379.31898193 -1186.20050049 378.45300293 C-1175.3881856 344.04880769 -1163.38309644 310.18885607 -1149.42391968 276.93086243 C-1147.72856845 272.85819058 -1146.15118815 268.75658116 -1144.64144897 264.61164856 C-1143.61230857 261.81091219 -1142.53444047 259.03035227 -1141.44873047 256.25112915 C-1140.94957599 254.9389476 -1140.4719508 253.61832875 -1140.01855469 252.28964233 C-1138.54292882 247.98478869 -1136.87133806 244.53816932 -1134 241 C-1131.17355347 239.78230286 -1131.17355347 239.78230286 -1127.63623047 239.03833008 C-1126.95233277 238.88746224 -1126.26843508 238.73659441 -1125.56381321 238.58115482 C-1123.96643869 238.23273233 -1122.3665031 237.89593614 -1120.76478386 237.56806564 C-1117.70289563 236.93895552 -1114.6495866 236.27536817 -1111.59571838 235.60842896 C-1104.42191744 234.04973599 -1097.23974217 232.53201493 -1090.05617785 231.01917934 C-1086.31441537 230.23046742 -1082.5733956 229.43824716 -1078.83229065 228.64642334 C-1072.39776923 227.28497308 -1065.96282705 225.92552784 -1059.52758789 224.56747437 C-1049.31004452 222.41116248 -1039.09341622 220.25053489 -1028.87695312 218.08911133 C-1026.27521126 217.53870567 -1023.67346796 216.9883068 -1021.0717243 216.43790966 C-1019.33167262 216.06980218 -1017.59162207 215.70168941 -1015.85157263 215.33357137 C-1009.71903715 214.0362337 -1003.586391 212.73942 -997.45370483 211.4427948 C-966.91685814 204.9861071 -936.38569675 198.50289449 -905.85695267 192.00801468 C-899.38247285 190.63065639 -892.90790507 189.25371166 -886.43334961 187.87670898 C-877.40293864 185.95607717 -868.37256585 184.03526597 -859.3422327 182.1142683 C-842.34300643 178.49809516 -825.34345044 174.88347454 -808.34375 171.26953125 C-807.68752214 171.13002414 -807.03129429 170.99051704 -806.35518074 170.84678245 C-800.38504772 169.5775963 -794.41491153 168.3084251 -788.44477081 167.03927517 C-779.1695444 165.06752011 -769.89433562 163.09568216 -760.61914062 161.1237793 C-759.96447154 160.98459694 -759.30980246 160.84541457 -758.63529491 160.70201457 C-755.32927615 159.99915597 -752.0232577 159.29629595 -748.71723938 158.59343529 C-742.76465112 157.32791363 -736.81206016 156.06240466 -730.85946941 154.79689467 C-727.55214617 154.09376363 -724.24482309 153.39063177 -720.9375 152.6875 C-719.61458333 152.40625 -718.29166667 152.125 -716.96875 151.84375 C-716.31390625 151.70453125 -715.6590625 151.5653125 -714.984375 151.421875 C-649.5 137.5 -584.015625 123.578125 -328.03125 69.15625 C-327.37640727 69.01703147 -326.72156455 68.87781293 -326.0468781 68.73437566 C-324.7239511 68.45312346 -323.4010241 68.17187128 -322.07809711 67.8906191 C-318.77096347 67.18752773 -315.46382986 66.48443622 -312.15669632 65.78134441 C-306.20168429 64.51531761 -300.24667205 63.24929184 -294.29165864 61.98327154 C-290.98187384 61.2796199 -287.67208921 60.5759674 -284.36230469 59.87231445 C-283.70706613 59.73301219 -283.05182757 59.59370992 -282.3767333 59.45018637 C-273.15398862 57.4894495 -263.93125413 55.52866463 -254.70852613 53.56784928 C-248.79006141 52.30954487 -242.87159365 51.05125473 -236.953125 49.79296875 C-236.30154199 49.65443977 -235.64995897 49.51591079 -234.97863102 49.37318397 C-217.30723986 45.61618621 -199.63573432 41.85972701 -181.96409583 38.10389274 C-180.91999309 37.8819848 -180.91999309 37.8819848 -179.85479736 37.65559387 C-179.15849661 37.50760599 -178.46219586 37.35961811 -177.74479508 37.20714575 C-172.84228237 36.1651864 -167.93978328 35.12316293 -163.03729248 34.08110046 C-162.34808928 33.9346053 -161.65888608 33.78811015 -160.94879794 33.63717574 C-158.17569187 33.04773089 -155.40258605 32.45828491 -152.62948179 31.86883152 C-145.14753127 30.27846564 -137.66555025 28.6882436 -130.18347168 27.09848022 C-93.24571722 19.25038039 -93.24571722 19.25038039 -56.31693268 11.36020851 C-53.5296037 10.76303759 -50.74220115 10.16621138 -47.95477295 9.56950378 C-46.19347943 9.19242275 -44.43218788 8.8153325 -42.67089844 8.43823242 C-41.40690783 8.16761002 -41.40690783 8.16761002 -40.11738205 7.8915205 C-35.31103763 6.86211863 -30.50532021 5.82985223 -25.70010376 4.79519844 C-22.86241048 4.18475593 -20.02421238 3.57668797 -17.18586731 2.96928406 C-15.30130427 2.56513441 -13.41742323 2.15780857 -11.53356934 1.75036621 C-9.88838318 1.39887512 -9.88838318 1.39887512 -8.20996094 1.0402832 C-7.26731384 0.83748245 -6.32466675 0.6346817 -5.35345459 0.42573547 C-3 0 -3 0 0 0 Z " fill="#232020" transform="translate(3000,2729)"/>
</svg>
